<mxfile host="app.diagrams.net" agent="Mozilla/5.0 (Windows NT 10.0; Win64; x64) AppleWebKit/537.36 (KHTML, like Gecko) Chrome/131.0.0.0 Safari/537.36" version="25.0.3">
  <diagram name="페이지-1" id="7yRZqA8zx_0-Kt9_PznU">
    <mxGraphModel dx="2261" dy="746" grid="1" gridSize="10" guides="1" tooltips="1" connect="1" arrows="1" fold="1" page="1" pageScale="1" pageWidth="827" pageHeight="1169" math="0" shadow="0">
      <root>
        <mxCell id="0" />
        <mxCell id="1" parent="0" />
        <mxCell id="nc0H4JgxdPSwkRKwztUI-23" value="" style="rounded=0;whiteSpace=wrap;html=1;" parent="1" vertex="1">
          <mxGeometry x="-29" y="93" width="741" height="631" as="geometry" />
        </mxCell>
        <mxCell id="nc0H4JgxdPSwkRKwztUI-21" value="" style="shape=card;whiteSpace=wrap;html=1;size=440;strokeColor=none;fillColor=#FF0000;opacity=30;" parent="1" vertex="1">
          <mxGeometry x="120" y="120" width="560" height="560" as="geometry" />
        </mxCell>
        <mxCell id="nc0H4JgxdPSwkRKwztUI-16" value="" style="shape=manualInput;whiteSpace=wrap;html=1;size=440;rotation=-180;strokeColor=none;fillColor=#00FF00;opacity=30;" parent="1" vertex="1">
          <mxGeometry x="120" y="120" width="440" height="440" as="geometry" />
        </mxCell>
        <mxCell id="nc0H4JgxdPSwkRKwztUI-2" value="" style="endArrow=classic;html=1;rounded=0;endFill=1;strokeWidth=2;" parent="1" edge="1">
          <mxGeometry width="50" height="50" relative="1" as="geometry">
            <mxPoint x="120" y="680" as="sourcePoint" />
            <mxPoint x="120" y="120" as="targetPoint" />
          </mxGeometry>
        </mxCell>
        <mxCell id="nc0H4JgxdPSwkRKwztUI-5" value="Computation&lt;div style=&quot;font-size: 21px;&quot;&gt;time&lt;/div&gt;" style="edgeLabel;html=1;align=center;verticalAlign=middle;resizable=0;points=[];fontSize=21;" parent="nc0H4JgxdPSwkRKwztUI-2" vertex="1" connectable="0">
          <mxGeometry relative="1" as="geometry">
            <mxPoint x="-67" as="offset" />
          </mxGeometry>
        </mxCell>
        <mxCell id="nc0H4JgxdPSwkRKwztUI-3" value="" style="endArrow=classic;html=1;rounded=0;endFill=1;strokeWidth=2;" parent="1" edge="1">
          <mxGeometry width="50" height="50" relative="1" as="geometry">
            <mxPoint x="120" y="680" as="sourcePoint" />
            <mxPoint x="680" y="680" as="targetPoint" />
          </mxGeometry>
        </mxCell>
        <mxCell id="nc0H4JgxdPSwkRKwztUI-4" value="Result Search &amp;amp; Retrieval Time" style="edgeLabel;html=1;align=center;verticalAlign=middle;resizable=0;points=[];fontSize=21;" parent="nc0H4JgxdPSwkRKwztUI-3" vertex="1" connectable="0">
          <mxGeometry relative="1" as="geometry">
            <mxPoint y="14" as="offset" />
          </mxGeometry>
        </mxCell>
        <mxCell id="nc0H4JgxdPSwkRKwztUI-6" value="" style="endArrow=none;html=1;rounded=0;endFill=0;strokeWidth=1;" parent="1" edge="1">
          <mxGeometry width="50" height="50" relative="1" as="geometry">
            <mxPoint x="120" y="560" as="sourcePoint" />
            <mxPoint x="560" y="120" as="targetPoint" />
          </mxGeometry>
        </mxCell>
        <mxCell id="nc0H4JgxdPSwkRKwztUI-19" value="Performance&lt;br style=&quot;font-size: 26px;&quot;&gt;Gain" style="edgeLabel;html=1;align=center;verticalAlign=middle;resizable=0;points=[];fontSize=26;fontColor=#000000;labelBackgroundColor=none;" parent="nc0H4JgxdPSwkRKwztUI-6" vertex="1" connectable="0">
          <mxGeometry relative="1" as="geometry">
            <mxPoint x="-86" y="-86" as="offset" />
          </mxGeometry>
        </mxCell>
        <mxCell id="nc0H4JgxdPSwkRKwztUI-22" value="&lt;font style=&quot;font-size: 26px;&quot;&gt;Performance&lt;br&gt;Loss&lt;/font&gt;" style="edgeLabel;html=1;align=center;verticalAlign=middle;resizable=0;points=[];fontSize=26;labelBackgroundColor=none;" parent="nc0H4JgxdPSwkRKwztUI-6" vertex="1" connectable="0">
          <mxGeometry relative="1" as="geometry">
            <mxPoint x="95" y="95" as="offset" />
          </mxGeometry>
        </mxCell>
        <mxCell id="aLNUrPYjdgyd-TNjK_4u-7" value="" style="endArrow=classic;startArrow=classic;html=1;rounded=0;" edge="1" parent="1">
          <mxGeometry width="50" height="50" relative="1" as="geometry">
            <mxPoint x="190" y="610" as="sourcePoint" />
            <mxPoint x="130" y="550" as="targetPoint" />
          </mxGeometry>
        </mxCell>
        <mxCell id="aLNUrPYjdgyd-TNjK_4u-10" value="Extra Overheads" style="edgeLabel;html=1;align=center;verticalAlign=middle;resizable=0;points=[];fontSize=16;labelBackgroundColor=none;" vertex="1" connectable="0" parent="aLNUrPYjdgyd-TNjK_4u-7">
          <mxGeometry x="-0.0029" y="-1" relative="1" as="geometry">
            <mxPoint x="59" y="-10" as="offset" />
          </mxGeometry>
        </mxCell>
        <mxCell id="aLNUrPYjdgyd-TNjK_4u-9" value="" style="endArrow=none;dashed=1;html=1;dashPattern=1 3;strokeWidth=2;rounded=0;" edge="1" parent="1">
          <mxGeometry width="50" height="50" relative="1" as="geometry">
            <mxPoint x="120" y="680" as="sourcePoint" />
            <mxPoint x="190" y="610" as="targetPoint" />
          </mxGeometry>
        </mxCell>
      </root>
    </mxGraphModel>
  </diagram>
</mxfile>
